<svg width="62" height="67" viewBox="0 0 62 67" fill="none" xmlns="http://www.w3.org/2000/svg">
<path d="M34.1443 19.8398L38.6297 14.543L44.0962 13.8925L51.4316 19.4216L51.9456 23.0922L51.4316 29.2718L48.8619 35.1262L34.1443 19.8398Z" fill="white"/>
<path d="M14.5209 42.0492L10.5962 37.3099L19.9874 26.1588L34.4714 24.0679L40.4986 26.7163L49.0488 35.7767C46.4323 38.456 41.0032 43.9914 40.2183 44.6976C39.2371 45.5804 29.3319 46.9278 24.9867 46.6026C21.5106 46.3424 16.5611 43.4586 14.5209 42.0492Z" fill="white"/>
<path d="M6.43792 27.9244L6.15759 24.0679L9.24127 20.3044L16.6701 17.5631L22.8375 22.4882L18.4456 27.3668L11.2971 35.8231L10.2692 36.2413L9.56833 35.8231L7.65271 31.595L6.43792 27.9244Z" fill="white"/>
<path d="M27.2922 0.0832489C26.2369 0.153213 26.0806 0.168761 24.3999 0.464166C23.3836 0.642964 21.7967 1.08607 20.4756 1.56805C18.451 2.29879 15.6368 3.89242 14.0343 5.20619C13.8936 5.31503 13.6122 5.54824 13.4089 5.71926C12.635 6.34894 10.8527 8.17579 10.2508 8.9454C10.1022 9.13974 9.96153 9.31077 9.93026 9.33409C9.88336 9.37296 9.75828 9.54398 9.086 10.5079C8.39809 11.4874 7.18643 13.6797 6.84247 14.5814C6.78775 14.7136 6.60796 15.18 6.43598 15.6309C4.89599 19.6655 4.5364 24.2132 5.39629 28.5976C5.61517 29.7093 5.97476 31.0541 6.23273 31.7382C6.30309 31.917 6.42816 32.2668 6.52197 32.5001C7.29587 34.5757 8.41372 36.5269 10.0397 38.6647C11.0638 40.0173 13.0728 41.9919 14.433 42.9947C17.3722 45.1636 20.5069 46.5862 23.9699 47.3403C25.6975 47.7134 26.9952 47.8456 29.0511 47.8378C30.7474 47.83 31.1695 47.8067 32.2561 47.6279C33.7336 47.3947 34.8827 47.1615 35.4455 46.9904C36.8917 46.5396 37.7282 46.2442 38.3692 45.9488C38.5568 45.8632 38.7209 45.7933 38.7444 45.7933C38.8617 45.7933 40.73 44.8216 41.457 44.3784C45.9909 41.611 49.4774 37.4597 51.4082 32.5001C52.0102 30.9608 52.3932 29.5227 52.6981 27.6803C53.6205 22.0598 52.4167 16.1517 49.3523 11.2775C49.0709 10.8267 48.641 10.2048 48.4064 9.88603C48.1641 9.57508 47.8983 9.21748 47.8123 9.10865C46.2723 7.03304 43.1298 4.37439 40.6987 3.07617C40.3157 2.87405 39.8544 2.62529 39.6825 2.532C38.5959 1.94119 36.3445 1.10939 34.7185 0.705154C32.6001 0.184308 29.6843 -0.0644536 27.2922 0.0832489ZM30.7709 1.79349C32.4828 1.92564 33.9368 2.22105 35.852 2.81963C37.3373 3.28606 38.6819 3.8691 40.0733 4.66203C40.9488 5.15955 42.0198 5.84365 42.1449 5.98357C42.1683 6.0069 42.395 6.18569 42.653 6.38004C43.5832 7.07191 45.0763 8.48674 45.9362 9.48956C46.5459 10.2048 47.7107 11.7828 47.9061 12.1638C47.9765 12.2959 48.0547 12.4203 48.0781 12.4436C48.1876 12.5369 49.1725 14.4415 49.5243 15.2422C49.9699 16.2683 50.5562 18.0952 50.4702 18.1807C50.4467 18.2118 50.3138 18.1107 50.1888 17.963C49.923 17.6598 46.3114 13.9595 43.8881 11.5108C42.9813 10.5934 42.1449 9.73055 42.0354 9.60617C41.9025 9.4507 41.8087 9.40405 41.7696 9.45847C41.6993 9.5673 40.8472 10.5235 40.2609 11.1532C40.0186 11.4175 39.6512 11.8217 39.4479 12.0549C39.2369 12.2881 38.8382 12.7468 38.549 13.0655C38.2597 13.3842 37.6813 14.0295 37.2591 14.5037C36.837 14.9701 36.368 15.4987 36.2116 15.6697C36.0553 15.8408 35.641 16.2917 35.3048 16.6803C34.9609 17.0613 34.5544 17.5199 34.398 17.6909C34.2417 17.862 33.9759 18.1651 33.8118 18.3673C33.6398 18.5694 33.4756 18.7326 33.4365 18.7326C33.3896 18.7404 31.9669 17.5666 31.748 17.3411C31.7246 17.3178 31.1695 16.828 30.5129 16.2606L29.3169 15.2189L29.0042 15.522C28.0349 16.4627 26.0962 18.4372 24.2201 20.3885C23.6572 20.9793 23.1569 21.4612 23.11 21.4612C23.0162 21.4612 22.7739 21.2125 21.742 20.0697C21.4215 19.7121 21.0854 19.339 20.9994 19.2457C20.9134 19.1602 20.6163 18.8415 20.3349 18.5383C20.0535 18.2429 19.6548 17.8075 19.4438 17.5743C19.2249 17.3411 18.8262 16.898 18.5448 16.6026C18.2634 16.2994 17.7474 15.7475 17.4035 15.3588C17.0595 14.9779 16.5436 14.4182 16.2622 14.115C15.9808 13.8196 15.543 13.3376 15.285 13.05C15.0349 12.7701 14.7847 12.5291 14.7378 12.5291C14.6909 12.5214 14.4251 12.7701 14.1515 13.0811C13.8779 13.392 13.5809 13.7185 13.4949 13.8118C12.9946 14.3404 11.6266 15.8174 11.1966 16.2917C10.9152 16.5871 10.6338 16.8902 10.5713 16.9602C10.5009 17.0302 10.3055 17.2401 10.1413 17.4266C9.45341 18.1885 8.14794 19.5877 7.63201 20.1241C7.33495 20.4351 7.07699 20.7227 7.06135 20.7616C7.04572 20.8082 6.98318 20.8393 6.92064 20.8393C6.84247 20.8393 6.81902 20.7849 6.84247 20.6605C6.86592 20.5672 6.95973 20.1241 7.05354 19.6733C7.73363 16.3616 9.00783 13.4698 10.9543 10.8111C11.6422 9.87048 11.8689 9.60617 12.9477 8.49452C16.7859 4.52987 21.6795 2.25214 27.4095 1.77017C28.0974 1.70798 29.8875 1.72352 30.7709 1.79349ZM39.2291 16.9291C39.0493 18.6316 38.9476 19.7044 38.9633 19.7277C38.9867 19.751 39.487 19.0747 39.487 19.0125C39.487 18.9969 39.6356 18.7637 39.8232 18.4916C40.0108 18.2196 40.3469 17.7298 40.5736 17.3955C40.8003 17.069 41.0114 16.7969 41.0348 16.7969C41.0661 16.7969 41.3162 17.1623 41.5899 17.6132L42.0823 18.4295L42.2934 18.274C42.4028 18.1962 42.6139 18.0174 42.7624 17.8853C42.9031 17.7609 43.0673 17.6521 43.1142 17.6521C43.1611 17.6521 43.763 18.2118 44.4509 18.8959C45.131 19.5722 45.7017 20.1241 45.7095 20.1164C45.7173 20.1086 45.6548 19.7665 45.5766 19.3623C45.4984 18.9581 45.4125 18.5383 45.3968 18.4295C45.3734 18.3206 45.303 17.9863 45.2405 17.6832C45.092 16.9757 45.092 17.0068 45.1076 16.8825C45.1154 16.8203 45.1623 16.7969 45.2561 16.8358C45.3265 16.8669 45.772 16.9913 46.2411 17.1157L47.101 17.3333L49.11 19.3779L51.1268 21.4224L51.2128 22.1376C51.3379 23.2414 51.3066 24.8739 51.1346 26.4287C51.0486 27.2061 50.9627 27.9213 50.947 28.0146C50.5093 30.0668 49.9699 31.7149 49.1725 33.4096C48.9615 33.8527 48.7738 34.2103 48.7426 34.2103C48.7113 34.2103 48.6253 34.1326 48.5393 34.0315C47.8592 33.2619 47.5153 32.8732 47.1401 32.469C46.8977 32.2047 46.5694 31.8393 46.3974 31.6449C46.2333 31.4506 45.9284 31.1241 45.7251 30.9064C45.5297 30.6965 45.2952 30.44 45.2092 30.3389C43.5911 28.481 38.2285 23.1559 35.1563 20.3496C34.7733 20.0075 34.7733 19.9998 34.8983 19.821C35.1798 19.409 35.9615 18.6471 36.368 18.375C37.8298 17.4033 38.9789 16.6104 39.0024 16.556C39.018 16.5171 39.0884 16.486 39.1509 16.486C39.2525 16.486 39.2682 16.5637 39.2291 16.9291ZM18.6933 19.8132C19.3187 20.2641 19.9363 20.7383 20.0613 20.8782C20.1942 21.0181 20.6398 21.5001 21.0619 21.951C21.4841 22.4019 21.828 22.7983 21.8202 22.8372C21.7967 22.9149 21.273 23.4824 18.92 26.0011C18.6386 26.3043 18.2321 26.7474 18.0289 26.9806C17.8256 27.2139 17.4582 27.6181 17.2159 27.8746C16.9735 28.1312 16.6609 28.481 16.5123 28.652C16.3716 28.823 16.0902 29.1418 15.887 29.3517C15.6915 29.5693 15.2616 30.0358 14.9411 30.4011C14.6206 30.7665 14.3392 31.0774 14.3157 31.1008C14.2922 31.1241 14.1906 31.2407 14.089 31.3729C13.9952 31.4972 13.7841 31.746 13.6278 31.917C13.2604 32.3213 12.1113 33.6428 11.267 34.6379C10.9074 35.0654 10.5635 35.4619 10.5087 35.5163C10.454 35.5707 10.3758 35.6718 10.3368 35.7417C10.2429 35.9128 10.0397 35.8195 9.92244 35.5552C9.86772 35.4386 9.80518 35.322 9.78173 35.2986C9.65666 35.182 8.97656 33.8916 8.61697 33.0831C7.93688 31.575 7.90561 31.4972 7.90561 31.3962C7.89779 31.3418 7.84307 31.1552 7.78053 30.9842C7.14734 29.2739 6.65486 26.4365 6.65486 24.4153V23.8323L7.47566 22.946C8.11667 22.2464 8.39809 21.9976 8.82022 21.7722C9.10946 21.6167 9.5863 21.3602 9.88336 21.2047C10.1726 21.0492 10.6338 20.7927 10.9152 20.645C11.1966 20.4895 11.5562 20.2952 11.7048 20.2097C11.8533 20.1319 12.0096 20.0775 12.0487 20.1008C12.08 20.1241 12.0409 20.3263 11.9549 20.5439C11.8689 20.7694 11.6969 21.2902 11.5719 21.6945C11.3061 22.604 10.6885 24.5319 10.5713 24.8273C10.454 25.1227 10.4618 25.2626 10.5869 25.1072C10.6416 25.0372 10.8058 24.8273 10.9699 24.6407C11.1263 24.4542 11.7517 23.6845 12.3536 22.9383C12.9633 22.192 13.5183 21.5079 13.5965 21.4146C13.6669 21.3291 13.8858 21.057 14.0812 20.816C14.2766 20.575 14.472 20.3807 14.5111 20.3729C14.558 20.3729 14.9098 20.746 15.2928 21.2047C15.6837 21.6711 16.0746 22.1298 16.1684 22.2386C16.2544 22.3475 16.5358 22.674 16.7781 22.9771L17.2237 23.5213L17.2081 22.5107C17.2002 21.951 17.1612 20.9093 17.1221 20.1863C17.083 19.4711 17.0752 18.8492 17.0986 18.8026C17.1533 18.7171 17.2237 18.7637 18.6933 19.8132ZM31.6542 25.2393C31.7949 25.3948 32.1076 25.7524 32.3578 26.0322C32.6001 26.3199 32.9128 26.6697 33.0457 26.8252C33.1786 26.9729 33.4756 27.3071 33.7023 27.5637C33.9212 27.8202 34.2182 28.1467 34.3433 28.2944C34.4762 28.4421 35 29.0485 35.5159 29.6393C36.0318 30.2301 36.4852 30.7354 36.5321 30.7587C36.579 30.7898 36.5947 30.7276 36.5634 30.5877C36.5165 30.3623 36.3289 29.0252 36.0475 26.9418C35.9693 26.3432 35.8833 25.7913 35.852 25.7135C35.813 25.628 35.8364 25.5814 35.8989 25.5814C36.0084 25.5814 39.1978 27.6725 39.2369 27.7736C39.2525 27.8047 39.2994 27.8358 39.3307 27.8358C39.3698 27.8358 39.7684 28.0768 40.2062 28.3644C40.6518 28.6598 41.1677 28.9941 41.3553 29.1184C41.5508 29.2351 41.754 29.3672 41.8166 29.4216C41.9963 29.5538 42.95 30.5177 43.6145 31.2485C43.9506 31.6061 44.4197 32.1114 44.6776 32.3757C44.9278 32.64 45.2248 32.9665 45.3421 33.1142C45.4515 33.2619 45.7799 33.635 46.0613 33.9304C46.3505 34.2336 46.7726 34.7078 46.9993 34.9877C47.2339 35.2675 47.4996 35.5785 47.5934 35.6873C47.6951 35.7962 47.7732 35.905 47.7732 35.9283C47.7732 36.1071 46.116 38.2216 45.2092 39.1933C44.8496 39.582 42.8953 41.3544 42.5748 41.5799C42.5357 41.611 42.2543 41.8131 41.9494 42.0308C40.7143 42.9092 38.5255 44.1141 37.4155 44.5106C37.2044 44.5883 36.9933 44.6816 36.9464 44.7049C36.6963 44.876 34.3746 45.5367 33.2724 45.7466C31.6073 46.0654 30.9194 46.1276 29.0902 46.1353C28.0818 46.1353 27.0577 46.112 26.8232 46.0809C26.5887 46.0498 26.2369 46.0032 26.0415 45.9799C24.4702 45.7777 22.1485 45.1947 20.9994 44.7127C20.9134 44.6739 20.5616 44.5339 20.2177 44.3862C18.3494 43.6166 16.2309 42.3262 14.6597 41.0124C13.5496 40.0873 11.267 37.6774 11.267 37.4442C11.267 37.3976 11.3843 37.2343 11.525 37.0788C11.7438 36.8301 12.6741 35.7573 13.19 35.1432C13.2838 35.0343 13.5105 34.77 13.6981 34.5601C13.8858 34.3424 14.1828 33.9926 14.3548 33.7905C14.7456 33.3241 14.7847 33.2774 15.4101 32.5778C15.6915 32.2668 16.0589 31.8471 16.2309 31.6527C17.1143 30.6499 17.7631 30.1679 19.4672 29.2351C19.6705 29.1262 19.9363 28.9707 20.0613 28.8852C20.1942 28.7919 20.4287 28.652 20.5929 28.5743C20.7492 28.4888 20.8821 28.3955 20.8821 28.3644C20.8821 28.3255 20.9134 28.3022 20.9525 28.3022C20.9916 28.3022 21.4059 28.069 21.8749 27.7891C22.3361 27.5093 22.7504 27.2527 22.7895 27.2294C22.8286 27.2061 22.8364 27.2761 22.813 27.3771C22.7739 27.5481 20.9838 32.2513 20.6085 33.1608C20.2958 33.9382 20.0301 34.6301 20.0457 34.6456C20.0535 34.6612 20.5069 34.1403 21.0385 33.4951C21.5779 32.8499 22.0547 32.2824 22.0938 32.2357C22.1407 32.1891 22.6097 31.6294 23.1491 30.9842C23.6885 30.3467 24.181 29.7637 24.2435 29.7015C24.3608 29.5771 24.736 29.1262 25.1581 28.6131C25.2754 28.4654 25.4083 28.3022 25.4552 28.2556C25.4943 28.2089 25.635 28.0457 25.7601 27.8902C25.8851 27.7347 26.0102 27.6026 26.0415 27.6026C26.0962 27.6026 26.1978 28.0457 26.4871 29.5227C26.6043 30.1368 26.7216 30.6032 26.7528 30.5721C26.7997 30.5177 27.0499 30.0669 28.0349 28.2011C28.3163 27.657 28.6055 27.2139 28.6602 27.2139C28.7228 27.2139 29.0198 27.587 29.3325 28.0457C29.6452 28.5121 29.9266 28.893 29.9657 28.9086C29.997 28.9241 30.0282 28.9707 30.0282 29.0096C30.0282 29.0718 30.4816 29.7714 30.5833 29.857C30.6223 29.8958 31.1305 30.6266 32.7486 33.0054C33.288 33.7905 33.3349 33.8372 33.2802 33.5495C33.2489 33.3785 33.1942 33.1297 33.1551 33.0054C33.0691 32.7333 32.6704 31.023 32.4907 30.1679C32.4203 29.8492 32.3343 29.4605 32.2952 29.3128C32.2561 29.1651 32.1389 28.652 32.0294 28.1856C31.8184 27.245 31.3806 25.4103 31.3103 25.1305C31.2399 24.8817 31.3728 24.9206 31.6542 25.2393Z" fill="#1467C5"/>
<path d="M21.3512 49.8357C20.804 49.9367 20.1786 50.2088 19.7408 50.5353C18.3806 51.5537 18.2556 53.7226 19.4985 54.6477C20.0144 55.0286 20.5225 55.254 21.6951 55.6272C22.9459 56.0159 23.2429 56.3113 22.7817 56.6766C22.5863 56.8321 22.5003 56.8399 22.0391 56.801C21.4137 56.7466 20.4835 56.459 19.7955 56.1091L19.2952 55.8526L18.8497 56.7466C18.5995 57.2441 18.3806 57.7261 18.3494 57.8116C18.2868 58.0137 18.4432 58.1303 19.178 58.418C21.015 59.1487 22.985 59.2187 24.2279 58.589C25.291 58.0526 25.807 56.8865 25.5724 55.5883C25.3848 54.5466 24.6109 53.9091 22.9146 53.3728C21.7342 53.0074 21.4762 52.8908 21.3277 52.6887C21.1401 52.4399 21.1948 52.1289 21.445 52.059C22.0313 51.9035 22.9146 52.0901 23.8605 52.5565C24.1263 52.6887 24.353 52.7819 24.3608 52.7742C24.4546 52.6731 25.3379 50.9162 25.3379 50.8307C25.3379 50.7063 25.2519 50.6597 24.4702 50.3565C23.2586 49.8823 22.1251 49.688 21.3512 49.8357Z" fill="#1467C5"/>
<path d="M0.401123 58.931H2.86354C5.56046 58.931 6.17802 58.8611 6.92847 58.4879C8.05415 57.9282 8.45282 56.6533 7.86653 55.4639C7.64765 55.0208 7.04573 54.4689 6.68614 54.3756C6.44381 54.3134 6.45162 54.2434 6.70177 54.1035C7.0301 53.9325 7.46786 53.3883 7.6242 52.953C7.91344 52.1523 7.65547 51.0872 7.02228 50.4731C6.40472 49.8745 6.42817 49.8745 3.23876 49.8512L0.401123 49.8279V58.931ZM4.81783 52.0201C5.11489 52.0901 5.17742 52.1445 5.25559 52.3777C5.3494 52.6731 5.29468 52.9918 5.11489 53.194C5.00544 53.3183 4.84128 53.3339 3.94231 53.3339H2.90262V51.9346H3.69216C4.1221 51.9346 4.63022 51.9735 4.81783 52.0201ZM5.34158 55.4872C5.71681 55.8915 5.66991 56.5289 5.25559 56.7544C5.16961 56.7932 4.60677 56.8321 4.00485 56.8321H2.90262V55.2773H5.13834L5.34158 55.4872Z" fill="#1467C5"/>
<path d="M9.15637 52.5176C9.15637 55.5494 9.21109 56.0158 9.6723 56.9254C9.93809 57.454 10.5556 58.1536 10.9778 58.418C11.8064 58.931 13.151 59.1331 14.2219 58.8999C15.6915 58.589 16.6374 57.7105 17.1533 56.1713C17.2941 55.7438 17.3175 55.4484 17.341 52.7664L17.38 49.8357H14.8629V52.3388C14.8629 53.7226 14.8238 55.0597 14.7847 55.3162C14.5111 57.0031 12.5647 57.3685 11.8767 55.8604C11.7048 55.4872 11.697 55.3628 11.6501 52.6731C11.6266 51.1339 11.5953 49.8668 11.5875 49.8512C11.5875 49.8434 11.0325 49.8357 10.368 49.8357H9.15637V52.5176Z" fill="#1467C5"/>
<path d="M26.1197 52.0123H28.6993V58.931H31.2008V52.0123H33.8587V51.2116C33.8587 50.7763 33.8352 50.2865 33.8118 50.1233L33.757 49.8357H26.1197V52.0123Z" fill="#1467C5"/>
<path d="M37.7125 49.9911C37.4077 50.0689 37.0403 50.1933 36.8917 50.271C35.3048 51.0795 34.3042 52.6576 34.3121 54.3445C34.3199 55.1763 34.4215 55.6194 34.7655 56.3424C35.6801 58.2236 37.7125 59.2964 39.6903 58.931C41.9104 58.5268 43.5051 56.6378 43.5051 54.4222C43.5051 52.3 42.0823 50.4887 39.9952 49.9523C39.3776 49.7968 38.4005 49.8123 37.7125 49.9911ZM40.0499 52.3466C40.2609 52.4788 40.4251 52.6187 40.4251 52.642C40.4251 52.6653 40.4955 52.7664 40.5814 52.8675C40.8629 53.1862 40.9958 53.8314 40.9489 54.6166C40.902 55.3784 40.8238 55.6272 40.4798 56.078C39.7997 56.9487 38.3614 57.0731 37.5718 56.3113C36.5243 55.3007 36.6103 53.1395 37.7438 52.3388C38.0956 52.0901 38.463 52.0123 39.0962 52.0512C39.5965 52.0823 39.7372 52.1289 40.0499 52.3466Z" fill="#1467C5"/>
<path d="M44.5135 52.6887C44.5369 55.324 44.5526 55.5961 44.7089 56.1169C45.0216 57.1819 45.5297 57.8738 46.3974 58.418C46.9525 58.7756 47.4684 58.931 48.2501 58.9854C50.4233 59.1331 52.0493 57.9982 52.5417 55.977C52.6825 55.3784 52.6981 55.0597 52.6981 52.572V49.8357H50.2904L50.2591 52.5332C50.2279 55.0908 50.2122 55.2618 50.0559 55.6738C49.5321 56.9876 48.0781 57.213 47.3355 56.0936C47.0463 55.6505 46.9915 55.1607 46.9915 52.7042C46.9915 51.3904 46.9681 50.2088 46.9446 50.0767L46.8977 49.8357H44.4822L44.5135 52.6887Z" fill="#1467C5"/>
<path d="M54.1833 58.931H56.6848V56.1325H57.6229L57.8887 56.5367C58.0294 56.7621 58.3968 57.384 58.6939 57.9204L59.2411 58.8922L60.6247 58.9155C61.383 58.9233 62.0005 58.9077 62.0005 58.8766C61.9927 58.8377 61.9067 58.6745 61.8051 58.5035C61.7035 58.3324 61.5237 58.0137 61.4142 57.8038C61.297 57.5862 61.1563 57.3607 61.0937 57.2908C61.0312 57.2286 60.9843 57.1508 60.9843 57.1275C60.9843 57.0964 60.8123 56.7777 60.5934 56.4045C60.3824 56.0314 60.2026 55.6894 60.2026 55.6349C60.2026 55.5805 60.3042 55.4484 60.4293 55.3473C60.9452 54.9197 61.4533 53.7925 61.4533 53.0618C61.4533 52.6187 61.2579 51.9035 61.0156 51.4993C60.7576 51.0639 60.2104 50.512 59.7883 50.271C59.1394 49.8901 58.7095 49.8357 56.3565 49.8357H54.1833V58.931ZM58.6782 52.2689C59.03 52.6731 59.03 53.4038 58.6704 53.7614C58.4828 53.948 58.4281 53.9558 57.5838 53.9558H56.6848V51.9968L57.5916 52.0279C58.4672 52.0512 58.5062 52.059 58.6782 52.2689Z" fill="#1467C5"/>
<path d="M21.7811 61.0611C20.0144 61.613 19.1624 63.6653 19.9988 65.3367C20.1082 65.5543 20.3975 65.9275 20.6476 66.1685C21.2652 66.7593 21.8437 66.9769 22.7661 66.9692C23.3915 66.9692 23.4931 66.9458 24.0325 66.6815C24.7282 66.3395 25.1738 65.8886 25.5099 65.1812C25.6975 64.7847 25.7288 64.6059 25.7366 64.054C25.7522 63.2377 25.6506 62.8724 25.2676 62.2971C24.6735 61.4187 23.7589 60.9444 22.6566 60.96C22.344 60.96 21.9531 61.0066 21.7811 61.0611ZM23.2977 61.6052C24.3842 61.8929 25.1112 62.7946 25.1191 63.8519C25.1191 64.4582 25.0096 64.8625 24.7204 65.3211C23.8292 66.7126 21.6873 66.7359 20.7414 65.3678C20.4287 64.9013 20.3271 64.5437 20.3271 63.8985C20.3271 62.8335 20.929 62.0328 22.0078 61.6441C22.4925 61.4731 22.7505 61.4653 23.2977 61.6052Z" fill="#484848"/>
<path d="M41.6211 61.0688C40.214 61.5042 39.362 62.9112 39.5808 64.4504C39.659 65.0646 39.9561 65.632 40.4564 66.1218C41.8947 67.5444 44.3884 67.1479 45.3108 65.3289C45.5297 64.9013 45.5453 64.8236 45.5453 63.9451C45.5453 63.09 45.5297 62.9812 45.3343 62.6236C44.92 61.8462 44.3806 61.3798 43.5754 61.0999C43.0595 60.9289 42.1214 60.9056 41.6211 61.0688ZM43.122 61.613C44.3337 61.9317 44.9669 62.7324 44.9747 63.9607C44.9747 64.9246 44.49 65.7176 43.6458 66.1296C43.2627 66.3239 43.1064 66.3472 42.5357 66.3472C41.8087 66.3472 41.4257 66.2073 40.9332 65.7642C40.472 65.3444 40.2375 64.808 40.2062 64.0617C40.1749 63.4787 40.1984 63.3466 40.3704 62.9734C40.6987 62.2738 41.1443 61.8851 41.9104 61.6441C42.4497 61.4731 42.5514 61.4653 43.122 61.613Z" fill="#484848"/>
<path d="M47.3824 61.0377C46.9056 61.2243 46.585 61.7218 46.5772 62.266C46.5694 62.8413 46.8117 63.1988 47.7029 63.914C48.5862 64.6292 48.9458 65.0568 48.9458 65.4144C48.9458 65.9819 48.3595 66.4483 47.742 66.3706C47.484 66.3317 47.3511 66.254 47.0228 65.9041C46.6398 65.4921 46.6241 65.4843 46.4209 65.5932C46.3036 65.6476 46.2098 65.7253 46.2098 65.7642C46.2098 65.7953 46.3114 65.9663 46.4365 66.1373C46.929 66.8137 47.5622 67.0935 48.2657 66.938C49.0709 66.767 49.4852 66.3006 49.5478 65.5232C49.579 65.0723 49.5634 65.0024 49.3211 64.6059C49.1413 64.3027 48.852 64.0229 48.3205 63.6186C47.3511 62.8723 47.2261 62.7246 47.2261 62.2504C47.2261 61.9162 47.2495 61.8695 47.484 61.7296C47.914 61.4653 48.3752 61.5586 48.7817 61.9939C49.0162 62.2427 49.1022 62.2427 49.3211 62.0172L49.493 61.8384L49.1178 61.4808C48.9146 61.2787 48.6488 61.0766 48.5315 61.0377C48.2579 60.9367 47.6482 60.9367 47.3824 61.0377Z" fill="#484848"/>
<path d="M13.065 61.1077C13.0571 61.2399 12.9712 61.8618 12.5647 64.707C12.4083 65.772 12.2832 66.6893 12.2832 66.7359C12.2832 66.8059 12.3849 66.837 12.5725 66.8292L12.8695 66.8215L12.9555 66.1218C13.1353 64.5826 13.4089 62.9035 13.4558 62.9346C13.4949 62.9579 13.9483 63.8285 14.4642 64.878C14.988 65.9197 15.4492 66.7981 15.4805 66.8215C15.5196 66.837 15.5899 66.8137 15.6368 66.7593C15.715 66.6582 17.2315 63.642 17.4504 63.1444C17.5129 63.0123 17.5833 62.8957 17.6067 62.8957C17.6302 62.8957 17.7709 63.7275 17.9038 64.7381C18.0445 65.7564 18.1774 66.6427 18.193 66.7126C18.2399 66.8681 18.8184 66.8759 18.7871 66.7204C18.7793 66.666 18.6464 65.772 18.4979 64.7381C18.0289 61.5119 17.9741 61.1466 17.9194 61.0844C17.8882 61.0533 17.341 62.0794 16.7078 63.3699C16.0746 64.6526 15.543 65.6943 15.5274 65.6787C15.5117 65.6632 15.0036 64.6759 14.4017 63.4787C13.2995 61.2787 13.0728 60.8823 13.065 61.1077Z" fill="#484848"/>
<path d="M26.917 63.9218L26.9405 66.8214H27.4877L27.5033 65.6165C27.5189 64.9557 27.5268 64.3649 27.5268 64.3105C27.5268 64.2639 27.5971 64.2172 27.6753 64.2172C27.8238 64.2172 27.8942 64.295 29.2387 66.0208L29.8954 66.8603H30.2315C30.4191 66.8603 30.5755 66.8448 30.5755 66.8214C30.5755 66.7981 30.1377 66.2151 29.5983 65.5232C29.0667 64.8314 28.6446 64.2405 28.6681 64.2017C28.6915 64.1706 28.8557 64.1395 29.0277 64.1395C29.4263 64.1395 29.997 63.8674 30.2315 63.5487C30.5911 63.0822 30.5755 62.1027 30.2002 61.6907C29.7937 61.2399 29.5983 61.1621 28.6212 61.0999C28.1287 61.0688 27.5346 61.0377 27.3079 61.0377L26.9014 61.03L26.917 63.9218ZM29.0433 61.7218C29.5749 61.8073 29.8719 62.1338 29.8719 62.6314C29.8719 62.9345 29.8328 63.0278 29.6139 63.2455C29.3247 63.5331 28.8948 63.6264 28.0036 63.5798L27.5033 63.5564L27.5111 62.7402C27.5189 62.2893 27.5268 61.8618 27.5268 61.784C27.5268 61.6674 27.6049 61.6519 28.0974 61.6596C28.4023 61.6596 28.8322 61.6907 29.0433 61.7218Z" fill="#484848"/>
<path d="M31.748 63.8985C31.748 66.4405 31.7637 66.7748 31.8731 66.8137C32.0138 66.8681 34.9843 66.8759 35.0391 66.8214C35.0625 66.8059 35.0625 66.666 35.0469 66.5105L35.0156 66.2384H32.3734V63.9762L33.7023 63.9918C34.4293 63.9996 35.0312 63.984 35.0312 63.9529C35.0312 63.9296 35.0312 63.7974 35.0312 63.6731V63.4398H33.8274C33.1629 63.4398 32.5688 63.4165 32.4985 63.3932C32.3968 63.3543 32.3734 63.1989 32.3734 62.4992V61.6441L33.7258 61.6519C34.9062 61.6674 35.0703 61.6519 35.0625 61.543C35.0625 61.4731 35.0547 61.3331 35.0469 61.2243L35.0312 61.03H31.748V63.8985Z" fill="#484848"/>
<path d="M36.0475 63.8985C36.0475 66.4405 36.0631 66.7748 36.1726 66.8137C36.2429 66.837 36.8761 66.8603 37.5797 66.8603H38.8617V66.2384H36.6729V63.8052C36.6729 62.4759 36.6494 61.302 36.626 61.201C36.5869 61.0688 36.5165 61.03 36.3133 61.03H36.0475V63.8985Z" fill="#484848"/>
<path d="M26.5162 11.0886C26.5162 12.9412 25.006 14.443 23.1431 14.443C21.2802 14.443 19.77 12.9412 19.77 11.0886C19.77 9.23602 21.2802 7.73421 23.1431 7.73421C25.006 7.73421 26.5162 9.23602 26.5162 11.0886Z" fill="#DD9C00"/>
<path d="M23.0962 4.56617L23.8671 6.59278H22.3254L23.0962 4.56617Z" fill="#DD9C00"/>
<path d="M27.6421 6.48725L26.7757 8.47531L25.6695 7.40733L27.6421 6.48725Z" fill="#DD9C00"/>
<path d="M18.5347 6.48725L19.4012 8.47531L20.5073 7.40733L18.5347 6.48725Z" fill="#DD9C00"/>
<path d="M29.5189 11.0554L27.4772 11.8119L27.4848 10.2788L29.5189 11.0554Z" fill="#DD9C00"/>
<path d="M16.6824 11.0554L18.7241 11.8119L18.7165 10.2788L16.6824 11.0554Z" fill="#DD9C00"/>
<path d="M27.7236 15.5138L25.6947 14.7238L26.7284 13.5862L27.7236 15.5138Z" fill="#DD9C00"/>
<path d="M18.4777 15.5138L20.5066 14.7238L19.4729 13.5862L18.4777 15.5138Z" fill="#DD9C00"/>
<path d="M23.0962 17.4351L22.3498 15.3994L23.8914 15.4178L23.0962 17.4351Z" fill="#DD9C00"/>
</svg>
