<svg width="462" height="465" viewBox="0 0 462 465" fill="none" xmlns="http://www.w3.org/2000/svg">
<path d="M307.678 191.547L256.13 137.694L287.059 100.933L324.753 96.4182L375.335 134.792L378.879 160.267L375.335 203.155L357.615 243.786L307.678 191.547Z" fill="#D9D9D9" stroke="black"/>
<path d="M120.816 291.834L93.7529 258.942L158.51 181.55L258.385 167.039L299.945 185.42L358.904 248.301C340.862 266.897 303.425 305.313 298.012 310.215C291.247 316.342 222.945 325.693 192.983 323.436C169.013 321.63 134.884 301.616 120.816 291.834Z" fill="#D9D9D9" stroke="black"/>
<path d="M65.0795 193.804L63.1465 167.039L84.4101 140.919L135.636 121.893L178.163 156.075L147.879 189.934L98.5858 248.624L91.4979 251.526L86.6653 248.624L73.4561 219.279L65.0795 193.804Z" fill="#D9D9D9" stroke="black"/>
<path d="M208.881 0.578217C201.604 1.06378 200.526 1.17169 188.937 3.22189C181.929 4.4628 170.987 7.53809 161.877 10.8831C147.916 15.9547 128.511 27.015 117.461 36.133C116.49 36.8883 114.55 38.5069 113.148 39.6938C107.812 44.064 95.5219 56.7429 91.3713 62.0842C90.3471 63.433 89.3768 64.6199 89.1612 64.7818C88.8378 65.0515 87.9753 66.2385 83.3396 72.9286C78.5961 79.7267 70.2411 94.9413 67.8693 101.2C67.492 102.117 66.2522 105.354 65.0663 108.483C54.4473 136.485 51.9678 168.047 57.8972 198.476C59.4065 206.192 61.886 215.525 63.6648 220.273C64.15 221.514 65.0124 223.942 65.6593 225.561C70.9957 239.966 78.7039 253.508 89.9159 268.345C96.9772 277.733 110.83 291.437 120.21 298.397C140.477 313.449 162.093 323.323 185.972 328.556C197.885 331.146 206.833 332.063 221.009 332.009C232.706 331.955 235.617 331.793 243.11 330.552C253.298 328.934 261.221 327.315 265.102 326.128C275.075 322.999 280.842 320.949 285.262 318.899C286.556 318.305 287.688 317.819 287.85 317.819C288.658 317.819 301.541 311.075 306.554 308C337.818 288.793 361.859 259.982 375.174 225.561C379.324 214.878 381.965 204.897 384.068 192.11C390.428 153.102 382.127 112.098 360.997 78.2699C359.056 75.1407 356.092 70.8245 354.475 68.6124C352.804 66.4543 350.971 63.9725 350.378 63.2172C339.759 48.8118 318.09 30.36 301.326 21.3499C298.684 19.9472 295.504 18.2207 294.318 17.5733C286.826 13.4729 271.301 7.69995 260.089 4.89441C245.482 1.2796 225.376 -0.446899 208.881 0.578217ZM232.868 12.4478C244.673 13.365 254.699 15.4152 267.905 19.5695C278.147 22.8067 287.419 26.8531 297.013 32.3563C303.051 35.8093 310.435 40.5571 311.298 41.5282C311.46 41.6901 313.023 42.931 314.802 44.2798C321.216 49.0816 331.512 58.901 337.441 65.8608C341.646 70.8245 349.677 81.7769 351.025 84.4205C351.51 85.3377 352.049 86.201 352.211 86.3628C352.965 87.0103 359.757 100.229 362.183 105.786C365.255 112.908 369.298 125.586 368.705 126.18C368.543 126.396 367.627 125.694 366.765 124.669C364.932 122.565 340.028 96.8836 323.318 79.8885C317.065 73.5221 311.298 67.5334 310.543 66.6701C309.627 65.5911 308.98 65.2674 308.71 65.6451C308.225 66.4004 302.35 73.0365 298.307 77.4067C296.636 79.2411 294.103 82.0466 292.701 83.6652C291.246 85.2838 288.497 88.467 286.502 90.679C284.508 92.8911 280.519 97.3692 277.608 100.66C274.697 103.897 271.463 107.566 270.385 108.753C269.307 109.94 266.45 113.069 264.132 115.767C261.76 118.411 258.957 121.594 257.879 122.781C256.801 123.968 254.969 126.072 253.837 127.475C252.651 128.877 251.519 130.01 251.249 130.01C250.926 130.064 241.115 121.918 239.606 120.353C239.444 120.191 235.617 116.792 231.089 112.854L222.842 105.624L220.686 107.728C214.002 114.256 200.634 127.96 187.697 141.502C183.816 145.603 180.366 148.948 180.043 148.948C179.396 148.948 177.725 147.221 170.61 139.29C168.399 136.809 166.082 134.219 165.489 133.571C164.896 132.978 162.847 130.766 160.907 128.662C158.966 126.611 156.217 123.59 154.762 121.972C153.253 120.353 150.503 117.278 148.563 115.227C146.622 113.123 143.065 109.293 140.693 106.595C138.321 103.951 134.764 100.067 132.823 97.9626C130.883 95.9124 127.864 92.5674 126.085 90.5711C124.36 88.6288 122.635 86.9563 122.312 86.9563C121.988 86.9024 120.156 88.6288 118.269 90.7869C116.383 92.9451 114.334 95.2111 113.741 95.8585C110.291 99.5273 100.858 109.778 97.8936 113.069C95.9531 115.12 94.0126 117.224 93.5813 117.709C93.0962 118.195 91.7486 119.652 90.6166 120.946C85.8731 126.234 76.8712 135.945 73.3136 139.668C71.2652 141.826 69.4864 143.822 69.3786 144.092C69.2708 144.416 68.8396 144.632 68.4084 144.632C67.8693 144.632 67.7076 144.254 67.8693 143.391C68.031 142.743 68.6779 139.668 69.3247 136.539C74.0143 113.555 82.8006 93.4846 96.2226 75.0328C100.966 68.5045 102.529 66.6701 109.968 58.9549C136.435 31.4391 170.178 15.631 209.69 12.2859C214.433 11.8543 226.777 11.9622 232.868 12.4478ZM291.192 117.493C289.952 129.309 289.251 136.755 289.359 136.916C289.521 137.078 292.971 132.384 292.971 131.953C292.971 131.845 293.995 130.226 295.288 128.338C296.582 126.45 298.9 123.051 300.463 120.731C302.026 118.465 303.482 116.576 303.644 116.576C303.859 116.576 305.584 119.112 307.471 122.241L310.867 127.906L312.322 126.827C313.077 126.288 314.532 125.047 315.556 124.13C316.526 123.266 317.658 122.511 317.982 122.511C318.305 122.511 322.456 126.396 327.199 131.143C331.889 135.837 335.824 139.668 335.878 139.614C335.932 139.56 335.501 137.186 334.961 134.381C334.422 131.575 333.829 128.662 333.722 127.906C333.56 127.151 333.075 124.831 332.644 122.727C331.619 117.817 331.619 118.033 331.727 117.17C331.781 116.738 332.105 116.576 332.751 116.846C333.237 117.062 336.309 117.925 339.543 118.788L345.473 120.299L359.326 134.489L373.233 148.678L373.826 153.642C374.688 161.303 374.473 172.633 373.287 183.424C372.694 188.819 372.101 193.782 371.993 194.43C368.975 208.673 365.255 220.111 359.757 231.873C358.302 234.948 357.008 237.43 356.792 237.43C356.577 237.43 355.984 236.891 355.391 236.189C350.701 230.848 348.33 228.15 345.742 225.345C344.071 223.51 341.807 220.975 340.621 219.626C339.489 218.277 337.387 216.011 335.986 214.5C334.638 213.044 333.021 211.263 332.428 210.562C321.27 197.667 284.292 160.71 263.108 141.233C260.467 138.859 260.467 138.805 261.329 137.564C263.27 134.704 268.66 129.417 271.463 127.529C281.543 120.785 289.467 115.281 289.629 114.904C289.736 114.634 290.222 114.418 290.653 114.418C291.354 114.418 291.461 114.958 291.192 117.493ZM149.587 137.51C153.899 140.639 158.158 143.93 159.02 144.901C159.937 145.873 163.009 149.218 165.92 152.347C168.831 155.476 171.202 158.228 171.149 158.497C170.987 159.037 167.375 162.976 151.15 180.456C149.21 182.56 146.407 185.636 145.005 187.254C143.604 188.873 141.07 191.678 139.399 193.459C137.728 195.239 135.572 197.667 134.548 198.854C133.578 200.041 131.637 202.253 130.236 203.71C128.888 205.22 125.923 208.458 123.713 210.993C121.503 213.529 119.563 215.687 119.401 215.849C119.239 216.011 118.539 216.82 117.838 217.737C117.191 218.601 115.736 220.327 114.658 221.514C112.124 224.32 104.2 233.492 98.3787 240.397C95.8992 243.365 93.5274 246.116 93.1501 246.494C92.7728 246.872 92.2337 247.573 91.9642 248.059C91.3174 249.246 89.9159 248.598 89.1073 246.764C88.73 245.955 88.2988 245.145 88.1371 244.983C87.2746 244.174 82.585 235.218 80.1054 229.607C75.4158 219.14 75.2002 218.601 75.2002 217.899C75.1463 217.522 74.769 216.227 74.3377 215.04C69.9716 203.17 66.5756 183.478 66.5756 169.45V165.403L72.2355 159.253C76.6556 154.397 78.5961 152.671 81.5069 151.106C83.5014 150.027 86.7895 148.246 88.8378 147.167C90.8322 146.088 94.0126 144.308 95.9531 143.283C97.8936 142.204 100.373 140.855 101.397 140.261C102.422 139.722 103.5 139.344 103.769 139.506C103.985 139.668 103.715 141.071 103.122 142.581C102.529 144.146 101.343 147.761 100.481 150.566C98.6483 156.879 94.3899 170.259 93.5813 172.309C92.7728 174.36 92.8267 175.331 93.6891 174.252C94.0665 173.766 95.1984 172.309 96.3304 171.014C97.4085 169.72 101.721 164.378 105.871 159.199C110.076 154.019 113.903 149.272 114.442 148.624C114.927 148.031 116.436 146.142 117.784 144.47C119.132 142.797 120.479 141.448 120.749 141.394C121.072 141.394 123.498 143.984 126.139 147.167C128.834 150.405 131.529 153.588 132.176 154.343C132.769 155.098 134.71 157.364 136.381 159.469L139.453 163.245L139.345 156.231C139.292 152.347 139.022 145.117 138.753 140.1C138.483 135.136 138.429 130.82 138.591 130.496C138.968 129.903 139.453 130.226 149.587 137.51ZM238.959 175.169C239.93 176.248 242.086 178.73 243.811 180.672C245.482 182.668 247.638 185.096 248.554 186.175C249.47 187.2 251.519 189.52 253.082 191.301C254.591 193.081 256.64 195.347 257.502 196.372C258.418 197.397 262.03 201.606 265.588 205.706C269.145 209.806 272.272 213.313 272.595 213.475C272.918 213.691 273.026 213.259 272.811 212.288C272.487 210.724 271.194 201.444 269.253 186.984C268.714 182.83 268.121 178.999 267.905 178.46C267.636 177.866 267.798 177.543 268.229 177.543C268.984 177.543 290.976 192.056 291.246 192.757C291.354 192.973 291.677 193.189 291.893 193.189C292.162 193.189 294.911 194.861 297.93 196.858C301.002 198.908 304.56 201.228 305.854 202.091C307.201 202.9 308.603 203.818 309.034 204.195C310.274 205.112 316.85 211.803 321.432 216.874C323.75 219.356 326.984 222.863 328.763 224.697C330.487 226.532 332.536 228.798 333.344 229.823C334.099 230.848 336.363 233.438 338.303 235.488C340.298 237.592 343.209 240.883 344.772 242.825C346.389 244.768 348.222 246.926 348.869 247.681C349.569 248.436 350.108 249.192 350.108 249.354C350.108 250.595 338.681 265.27 332.428 272.014C329.948 274.711 316.473 287.013 314.263 288.577C313.993 288.793 312.052 290.196 309.95 291.706C301.433 297.803 286.34 306.166 278.686 308.917C277.231 309.457 275.775 310.104 275.452 310.266C273.727 311.453 257.718 316.039 250.117 317.496C238.636 319.708 233.892 320.139 221.279 320.193C214.325 320.193 207.264 320.032 205.647 319.816C204.03 319.6 201.604 319.276 200.256 319.114C189.422 317.712 173.412 313.665 165.489 310.32C164.896 310.05 162.47 309.079 160.098 308.054C147.215 302.713 132.607 293.757 121.773 284.639C114.119 278.218 98.3787 261.493 98.3787 259.874C98.3787 259.551 99.1873 258.418 100.158 257.339C101.667 255.612 108.081 248.167 111.639 243.904C112.286 243.149 113.849 241.315 115.143 239.858C116.436 238.347 118.485 235.919 119.671 234.517C122.366 231.28 122.635 230.956 126.948 226.1C128.888 223.942 131.422 221.029 132.607 219.68C138.699 212.72 143.173 209.375 154.924 202.9C156.325 202.145 158.158 201.066 159.02 200.473C159.937 199.825 161.554 198.854 162.686 198.314C163.764 197.721 164.68 197.074 164.68 196.858C164.68 196.588 164.896 196.426 165.165 196.426C165.435 196.426 168.292 194.808 171.526 192.865C174.706 190.923 177.563 189.143 177.833 188.981C178.102 188.819 178.156 189.304 177.994 190.006C177.725 191.193 165.381 223.834 162.793 230.146C160.637 235.542 158.805 240.344 158.912 240.451C158.966 240.559 162.093 236.945 165.758 232.466C169.478 227.988 172.766 224.05 173.035 223.726C173.359 223.402 176.593 219.518 180.312 215.04C184.031 210.616 187.427 206.569 187.859 206.138C188.667 205.274 191.255 202.145 194.165 198.584C194.974 197.559 195.89 196.426 196.214 196.102C196.483 195.779 197.453 194.646 198.316 193.567C199.178 192.488 200.041 191.57 200.256 191.57C200.634 191.57 201.335 194.646 203.329 204.897C204.138 209.159 204.946 212.396 205.162 212.18C205.485 211.803 207.21 208.673 214.002 195.725C215.942 191.948 217.937 188.873 218.314 188.873C218.745 188.873 220.794 191.462 222.95 194.646C225.106 197.883 227.047 200.527 227.316 200.634C227.532 200.742 227.747 201.066 227.747 201.336C227.747 201.767 230.874 206.623 231.574 207.217C231.844 207.486 235.348 212.558 246.506 229.067C250.225 234.517 250.548 234.84 250.171 232.844C249.956 231.657 249.578 229.931 249.309 229.067C248.716 227.179 245.967 215.31 244.727 209.375C244.242 207.163 243.649 204.465 243.379 203.44C243.11 202.415 242.301 198.854 241.547 195.617C240.091 189.089 237.073 176.356 236.587 174.413C236.102 172.687 237.019 172.957 238.959 175.169Z" fill="#1467C5"/>
<path d="M167.914 345.875C164.141 346.576 159.829 348.465 156.81 350.731C147.431 357.798 146.568 372.851 155.139 379.271C158.697 381.915 162.2 383.48 170.286 386.069C178.91 388.767 180.959 390.817 177.778 393.353C176.431 394.432 175.838 394.486 172.658 394.216C168.345 393.839 161.931 391.842 157.187 389.415L153.737 387.634L150.665 393.839C148.94 397.292 147.431 400.637 147.215 401.23C146.784 402.633 147.862 403.442 152.929 405.438C165.596 410.51 179.18 410.996 187.751 406.625C195.081 402.903 198.639 394.81 197.022 385.8C195.728 378.57 190.392 374.146 178.695 370.423C170.555 367.887 168.777 367.078 167.752 365.675C166.459 363.949 166.836 361.791 168.561 361.305C172.604 360.226 178.695 361.521 185.217 364.758C187.05 365.675 188.613 366.323 188.667 366.269C189.314 365.567 195.405 353.374 195.405 352.781C195.405 351.917 194.812 351.594 189.422 349.49C181.067 346.199 173.251 344.85 167.914 345.875Z" fill="#1467C5"/>
<path d="M23.4526 377.383V408.999H40.4323C59.029 408.999 63.2874 408.514 68.4621 405.924C76.2242 402.039 78.9733 393.191 74.9305 384.936C73.4212 381.861 69.2707 378.03 66.7911 377.383C65.1201 376.951 65.174 376.466 66.8989 375.495C69.1629 374.308 72.1815 370.531 73.2595 367.51C75.254 361.953 73.4751 354.561 69.109 350.299C64.8506 346.144 65.0123 346.144 43.0196 345.983L23.4526 345.821V377.383ZM53.9082 361.035C55.9565 361.521 56.3877 361.899 56.9268 363.517C57.5736 365.567 57.1963 367.779 55.9565 369.182C55.2018 370.045 54.0699 370.153 47.871 370.153H40.7018V365.298V360.442H46.146C49.1107 360.442 52.6145 360.712 53.9082 361.035ZM57.5197 385.098C60.1071 387.904 59.7836 392.328 56.9268 393.893C56.3338 394.162 52.4528 394.432 48.3022 394.432H40.7018V389.037V383.642H48.41H56.1182L57.5197 385.098Z" fill="#1467C5"/>
<path d="M83.8247 364.488C83.8247 385.53 84.202 388.767 87.3823 395.08C89.2151 398.748 93.4734 403.604 96.3842 405.438C102.098 408.999 111.369 410.402 118.754 408.783C128.888 406.625 135.41 400.529 138.968 389.846C139.938 386.879 140.1 384.829 140.262 366.215L140.531 345.875H131.853H123.174V363.247C123.174 372.851 122.905 382.131 122.635 383.911C120.749 395.619 107.327 398.155 102.583 387.688C101.397 385.098 101.343 384.235 101.02 365.567C100.858 354.885 100.643 346.091 100.589 345.983C100.589 345.929 96.7616 345.875 92.1798 345.875H83.8247V364.488Z" fill="#1467C5"/>
<path d="M200.795 353.428V360.981H209.689H218.584V384.99V408.999H227.208H235.833V384.99V360.981H244.996H254.16V355.424C254.16 352.403 253.998 349.004 253.837 347.871L253.459 345.875H227.154H200.795V353.428Z" fill="#1467C5"/>
<path d="M280.734 346.954C278.632 347.493 276.099 348.357 275.075 348.896C264.132 354.507 257.233 365.46 257.286 377.167C257.34 382.94 258.041 386.016 260.413 391.033C266.72 404.09 280.734 411.535 294.372 408.999C309.681 406.194 320.677 393.083 320.677 377.707C320.677 362.978 310.867 350.407 296.474 346.684C292.216 345.605 285.478 345.713 280.734 346.954ZM296.852 363.302C298.307 364.219 299.439 365.19 299.439 365.352C299.439 365.514 299.924 366.215 300.517 366.916C302.458 369.128 303.374 373.607 303.051 379.056C302.727 384.343 302.188 386.07 299.816 389.199C295.127 395.242 285.208 396.105 279.764 390.817C272.541 383.804 273.134 368.805 280.95 363.248C283.376 361.521 285.909 360.982 290.275 361.251C293.725 361.467 294.696 361.791 296.852 363.302Z" fill="#1467C5"/>
<path d="M327.631 365.675C327.792 383.965 327.9 385.854 328.978 389.468C331.134 396.86 334.638 401.662 340.621 405.438C344.449 407.92 348.006 408.999 353.397 409.377C368.382 410.402 379.594 402.525 382.99 388.497C383.96 384.343 384.068 382.131 384.068 364.866V345.875H375.767H367.465L367.25 364.596C367.034 382.347 366.926 383.534 365.848 386.393C362.237 395.511 352.211 397.076 347.09 389.307C345.095 386.231 344.718 382.832 344.718 365.783C344.718 356.665 344.556 348.465 344.395 347.547L344.071 345.875H335.716H327.415L327.631 365.675Z" fill="#1467C5"/>
<path d="M394.309 377.437V408.999H402.934H411.558V399.288V389.576H414.792H418.027L419.859 392.382C420.83 393.946 423.363 398.263 425.411 401.985L429.185 408.73L438.726 408.891C443.954 408.945 448.213 408.837 448.213 408.622C448.159 408.352 447.566 407.219 446.865 406.032C446.164 404.845 444.925 402.633 444.17 401.176C443.361 399.665 442.391 398.101 441.96 397.615C441.529 397.184 441.205 396.644 441.205 396.482C441.205 396.266 440.019 394.054 438.51 391.465C437.055 388.875 435.815 386.501 435.815 386.123C435.815 385.746 436.516 384.829 437.378 384.127C440.936 381.16 444.439 373.337 444.439 368.265C444.439 365.19 443.092 360.226 441.421 357.421C439.642 354.399 435.869 350.569 432.958 348.896C428.484 346.252 425.519 345.875 409.294 345.875H394.309V377.437ZM425.304 362.762C427.729 365.567 427.729 370.639 425.25 373.121C423.956 374.416 423.579 374.47 417.757 374.47H411.558V367.672V360.874L417.811 361.089C423.848 361.251 424.118 361.305 425.304 362.762Z" fill="#1467C5"/>
<path d="M170.879 423.782C158.696 427.613 152.821 441.856 158.589 453.456C159.343 454.967 161.338 457.557 163.063 459.229C167.321 463.329 171.31 464.84 177.671 464.786C181.983 464.786 182.684 464.624 186.403 462.79C191.2 460.416 194.273 457.287 196.591 452.377C197.884 449.626 198.1 448.385 198.154 444.554C198.262 438.889 197.561 436.353 194.92 432.361C190.823 426.264 184.516 422.973 176.916 423.081C174.76 423.081 172.065 423.405 170.879 423.782ZM181.336 427.559C188.829 429.555 193.842 435.814 193.896 443.151C193.896 447.36 193.141 450.165 191.146 453.348C185.001 463.006 170.232 463.168 163.71 453.672C161.553 450.435 160.853 447.953 160.853 443.475C160.853 436.083 165.003 430.526 172.442 427.829C175.784 426.642 177.563 426.588 181.336 427.559Z" fill="#484848"/>
<path d="M307.686 423.836C297.983 426.858 292.108 436.623 293.617 447.306C294.156 451.568 296.205 455.506 299.654 458.905C309.573 468.779 326.768 466.027 333.128 453.402C334.638 450.435 334.746 449.895 334.746 443.799C334.746 437.864 334.638 437.109 333.29 434.627C330.433 429.232 326.714 425.994 321.162 424.052C317.604 422.865 311.136 422.703 307.686 423.836ZM318.035 427.613C326.391 429.825 330.757 435.382 330.811 443.907C330.811 450.597 327.469 456.1 321.647 458.959C319.006 460.308 317.928 460.47 313.993 460.47C308.98 460.47 306.338 459.499 302.942 456.424C299.762 453.51 298.145 449.787 297.929 444.608C297.714 440.562 297.876 439.644 299.061 437.055C301.325 432.199 304.398 429.501 309.68 427.829C313.4 426.642 314.1 426.588 318.035 427.613Z" fill="#484848"/>
<path d="M347.413 423.62C344.125 424.915 341.915 428.368 341.861 432.145C341.807 436.137 343.478 438.619 349.623 443.583C355.714 448.547 358.194 451.514 358.194 453.996C358.194 457.934 354.151 461.171 349.893 460.632C348.114 460.362 347.198 459.823 344.934 457.395C342.292 454.535 342.185 454.481 340.783 455.237C339.974 455.614 339.328 456.154 339.328 456.424C339.328 456.639 340.028 457.826 340.891 459.013C344.287 463.707 348.653 465.65 353.504 464.57C359.056 463.384 361.913 460.146 362.344 454.751C362.56 451.622 362.452 451.136 360.781 448.385C359.541 446.281 357.547 444.338 353.882 441.533C347.198 436.353 346.335 435.328 346.335 432.037C346.335 429.717 346.497 429.393 348.114 428.422C351.079 426.588 354.259 427.235 357.062 430.257C358.679 431.983 359.272 431.983 360.781 430.419L361.967 429.178L359.38 426.696C357.978 425.293 356.146 423.89 355.337 423.62C353.45 422.919 349.246 422.919 347.413 423.62Z" fill="#484848"/>
<path d="M110.777 424.106C110.723 425.023 110.13 429.34 107.327 449.086C106.249 456.478 105.386 462.844 105.386 463.168C105.386 463.653 106.087 463.869 107.381 463.815L109.429 463.761L110.022 458.906C111.262 448.223 113.148 436.569 113.472 436.785C113.741 436.947 116.868 442.99 120.425 450.273C124.037 457.503 127.217 463.599 127.433 463.761C127.702 463.869 128.187 463.707 128.511 463.33C129.05 462.628 139.507 441.695 141.016 438.242C141.448 437.325 141.933 436.515 142.095 436.515C142.256 436.515 143.227 442.288 144.143 449.302C145.113 456.37 146.03 462.52 146.137 463.006C146.461 464.085 150.45 464.139 150.234 463.06C150.18 462.682 149.264 456.478 148.24 449.302C145.005 426.912 144.628 424.376 144.251 423.944C144.035 423.729 140.262 430.85 135.896 439.806C131.529 448.709 127.864 455.938 127.756 455.83C127.648 455.722 124.145 448.87 119.994 440.562C112.394 425.293 110.83 422.542 110.777 424.106Z" fill="#484848"/>
<path d="M206.293 443.637L206.455 463.761H208.342H210.228L210.336 455.399C210.444 450.813 210.498 446.712 210.498 446.335C210.498 446.011 210.983 445.687 211.522 445.687C212.546 445.687 213.031 446.227 222.303 458.204L226.831 464.031H229.148C230.442 464.031 231.52 463.923 231.52 463.761C231.52 463.599 228.502 459.553 224.782 454.751C221.117 449.949 218.206 445.849 218.368 445.579C218.529 445.363 219.661 445.148 220.847 445.148C223.596 445.148 227.531 443.259 229.148 441.047C231.628 437.81 231.52 431.012 228.933 428.153C226.13 425.023 224.782 424.484 218.044 424.052C214.648 423.836 210.552 423.621 208.989 423.621L206.186 423.567L206.293 443.637ZM220.955 428.368C224.621 428.962 226.669 431.228 226.669 434.681C226.669 436.785 226.399 437.432 224.89 438.943C222.896 440.939 219.931 441.587 213.786 441.263L210.336 441.101L210.39 435.436C210.444 432.307 210.498 429.339 210.498 428.8C210.498 427.991 211.037 427.883 214.433 427.937C216.535 427.937 219.5 428.153 220.955 428.368Z" fill="#484848"/>
<path d="M239.606 443.475C239.606 461.118 239.714 463.438 240.468 463.707C241.439 464.085 261.922 464.139 262.299 463.761C262.461 463.653 262.461 462.682 262.353 461.603L262.138 459.715H253.028H243.918V451.838V444.015L253.082 444.123C258.095 444.177 262.245 444.069 262.245 443.853C262.245 443.691 262.245 442.774 262.245 441.911V440.292H253.944C249.363 440.292 245.266 440.13 244.781 439.968C244.08 439.698 243.918 438.619 243.918 433.764V427.829L253.244 427.883C261.383 427.991 262.515 427.883 262.461 427.128C262.461 426.642 262.407 425.671 262.353 424.915L262.245 423.567H250.926H239.606V443.475Z" fill="#484848"/>
<path d="M269.253 443.475C269.253 461.118 269.361 463.438 270.115 463.707C270.601 463.869 274.967 464.031 279.818 464.031H288.658V461.873V459.715H281.112H273.565V442.828C273.565 433.602 273.404 425.455 273.242 424.754C272.972 423.836 272.487 423.567 271.086 423.567H269.253V443.475Z" fill="#484848"/>
<ellipse cx="180.271" cy="76.9585" rx="23.2593" ry="23.2805" fill="#DD9C00"/>
<path d="M179.947 31.6909L185.263 45.7562H174.632L179.947 31.6909Z" fill="#DD9C00"/>
<path d="M211.294 45.0237L205.319 58.8215L197.691 51.4094L211.294 45.0237Z" fill="#DD9C00"/>
<path d="M148.493 45.0237L154.468 58.8215L162.096 51.4094L148.493 45.0237Z" fill="#DD9C00"/>
<path d="M224.235 76.7279L210.156 81.9785L210.209 71.3379L224.235 76.7279Z" fill="#DD9C00"/>
<path d="M135.72 76.7279L149.799 81.9785L149.746 71.3379L135.72 76.7279Z" fill="#DD9C00"/>
<path d="M211.855 107.671L197.865 102.188L204.993 94.2928L211.855 107.671Z" fill="#DD9C00"/>
<path d="M148.1 107.671L162.09 102.188L154.962 94.2928L148.1 107.671Z" fill="#DD9C00"/>
<path d="M179.947 121.005L174.8 106.877L185.431 107.005L179.947 121.005Z" fill="#DD9C00"/>
</svg>
